<?xml version="1.0" encoding="utf-8"?>
<!-- Generator: Adobe Illustrator 24.0.1, SVG Export Plug-In . SVG Version: 6.00 Build 0)  -->
<svg version="1.1" id="Layer_1" xmlns="http://www.w3.org/2000/svg" xmlns:xlink="http://www.w3.org/1999/xlink" x="0px" y="0px"
	 viewBox="0 0 24 24" style="enable-background:new 0 0 24 24;" xml:space="preserve">
<style type="text/css">
	.st0{fill:#FFFFFF;}
</style>
<g>
	<path class="st0" d="M22.5,7.5c-0.8-1.9-2.1-3.5-3.8-4.8c-2.3-1.7-4.8-2.4-7.6-2.2C8.6,0.8,6.3,1.8,4.4,3.5
		C2.4,5.2,1.2,7.4,0.8,9.9c-0.5,2.6-0.1,5,1.1,7.4C2,17.6,2.1,17.8,2,18.1c-0.2,0.8-0.5,1.7-0.7,2.5c-0.2,0.7-0.4,1.3-0.6,2
		c-0.1,0.4,0.3,0.8,0.7,0.7c1.2-0.3,3.4-0.9,4.7-1.2c0.3-0.1,0.6,0,0.8,0.1c2.2,1.1,4.5,1.4,7,1c2.3-0.4,4.4-1.4,6.1-3.1
		c1.6-1.6,2.7-3.6,3.2-5.8C23.7,12,23.5,9.7,22.5,7.5z M21.5,13.3c-0.4,2.8-1.8,5-4.1,6.6c-2,1.3-4.1,1.9-6.5,1.6
		c-1.3-0.1-2.4-0.5-3.5-1.2c-0.4-0.2-0.8-0.3-1.2-0.1c-0.9,0.3-1.7,0.5-2.6,0.7c-0.2,0-0.3-0.1-0.3-0.3c0.2-0.8,0.4-1.6,0.7-2.4
		c0.2-0.5,0.1-0.9-0.1-1.4c-0.4-0.7-0.7-1.4-1-2.2c-0.5-1.6-0.5-3.3-0.1-4.9C3.4,7.1,4.9,5,7.4,3.7c2.1-1.2,4.3-1.5,6.6-1
		c2.5,0.5,4.6,1.9,6,4.1C21.3,8.7,21.8,10.9,21.5,13.3z"/>
	<path class="st0" d="M15.1,17.5c-1,0-2-0.3-2.9-0.8c-1.9-0.9-3.4-2.3-4.6-4.1c-0.3-0.5-0.6-0.9-0.9-1.4C6.1,10,6,8.8,6.7,7.7
		C6.9,7.4,7.1,7.2,7.3,7c0.3-0.3,1.1-0.3,1.5-0.1C8.9,6.9,9,7,9,7.1c0.3,0.7,0.7,1.5,1,2.3c0.1,0.3-0.1,0.6-0.3,0.9
		c-0.2,0.2-0.3,0.4-0.5,0.6c-0.1,0.2-0.2,0.4-0.1,0.5c0.9,1.5,2,2.6,3.5,3.2c0.5,0.2,1,0.1,1.3-0.3c0.2-0.2,0.4-0.5,0.6-0.7
		c0.2-0.3,0.4-0.3,0.7-0.1c0.7,0.3,1,0.5,1.7,0.8c0.3,0.1,0.8,0.5,0.8,0.8c-0.1,1.1-0.9,2-2.1,2.3C15.5,17.5,15.3,17.5,15.1,17.5z"
		/>
</g>
</svg>
